<?xml version="1.0" standalone="no"?>
<!DOCTYPE svg PUBLIC "-//W3C//DTD SVG 20010904//EN"
 "http://www.w3.org/TR/2001/REC-SVG-20010904/DTD/svg10.dtd">
<svg version="1.0" xmlns="http://www.w3.org/2000/svg"
 width="400.000000pt" height="400.000000pt" viewBox="0 0 400.000000 400.000000"
 preserveAspectRatio="xMidYMid meet">
<metadata>
Created by potrace 1.14, written by Peter Selinger 2001-2017
</metadata>
<g transform="translate(0.000000,400.000000) scale(0.100000,-0.100000)"
fill="#000000" stroke="none">
<path d="M1850 2985 l0 -175 -345 0 -345 0 0 -170 0 -170 -170 0 -170 0 -2
-177 -3 -178 -146 -3 -146 -3 -7 -83 c-4 -47 -4 -108 0 -136 l7 -51 -39 6
c-46 8 -133 46 -175 75 -24 18 -29 19 -29 6 0 -36 -55 -78 -141 -106 l-84 -28
235 -1 236 -1 13 -62 c56 -274 266 -525 544 -653 165 -76 322 -105 563 -105
429 0 788 101 1104 311 124 82 333 290 418 417 l63 92 317 1 c187 0 309 4 297
9 -11 5 -46 16 -77 25 -68 21 -118 60 -120 96 l-2 27 -36 -30 c-60 -48 -133
-70 -247 -76 l-103 -5 54 114 54 114 99 7 c146 9 246 52 329 140 56 59 101
135 87 148 -17 17 -110 59 -155 70 -43 11 -230 10 -266 -1 -10 -3 -19 13 -28
50 -8 30 -26 76 -41 103 -29 54 -127 165 -174 199 l-30 21 -26 -23 c-65 -61
-109 -213 -98 -337 6 -72 34 -167 61 -207 8 -11 14 -22 14 -26 0 -11 -111 -56
-180 -74 -44 -12 -110 -18 -205 -19 l-140 -1 -3 178 -2 177 -170 0 -170 0 0
345 0 345 -210 0 -210 0 0 -175z m360 -35 l0 -151 -147 3 -148 3 -3 148 -3
147 151 0 150 0 0 -150z m-350 -340 l0 -150 -145 0 -145 0 0 150 0 150 145 0
145 0 0 -150z m-340 -5 l0 -145 -150 0 -150 0 0 145 0 145 150 0 150 0 0 -145z
m690 0 l0 -145 -150 0 -150 0 0 145 0 145 150 0 150 0 0 -145z m1055 53 c74
-83 116 -168 123 -253 4 -55 7 -65 21 -60 9 4 43 13 76 22 90 23 259 9 314
-26 30 -19 -61 -122 -146 -165 -53 -27 -153 -46 -243 -46 l-86 0 -13 -37 c-8
-21 -36 -84 -63 -140 l-50 -101 -52 15 c-28 8 -64 23 -81 33 -30 18 -30 18
-58 -5 -42 -37 -120 -56 -247 -62 -188 -9 -386 28 -446 83 l-25 24 -37 -30
c-116 -93 -382 -106 -540 -26 -27 13 -54 32 -61 40 -12 14 -16 13 -43 -9 -65
-55 -261 -91 -448 -82 -126 6 -205 25 -246 60 l-26 23 -57 -29 c-58 -28 -232
-59 -248 -44 -10 11 -10 193 0 204 5 4 538 10 1185 13 l1177 5 70 24 c71 24
165 69 199 95 18 14 17 17 -17 57 -20 23 -43 62 -52 88 -22 63 -30 185 -16
251 15 68 48 140 66 140 7 0 39 -28 70 -62z m-2095 -398 l0 -150 -145 0 -145
0 0 150 0 150 145 0 145 0 0 -150z m350 0 l0 -150 -150 0 -150 0 0 150 0 150
150 0 150 0 0 -150z m340 0 l0 -150 -145 0 -145 0 0 150 0 150 145 0 145 0 0
-150z m350 0 l0 -150 -150 0 -150 0 0 150 0 150 150 0 150 0 0 -150z m340 0
l0 -150 -145 0 -145 0 0 150 0 150 145 0 145 0 0 -150z m-987 -658 c10 -10 20
-35 24 -55 5 -31 1 -40 -25 -67 -47 -47 -112 -36 -137 24 -37 89 71 165 138
98z m-178 -275 c49 -88 158 -199 243 -247 108 -60 108 -59 7 -60 -253 -1 -486
62 -655 174 -78 53 -190 145 -190 157 0 3 91 9 203 12 122 3 226 11 262 20 33
8 67 15 75 15 9 1 32 -28 55 -71z"/>
</g>
</svg>
